<svg xmlns="http://www.w3.org/2000/svg" viewBox="0 0 50 50" xmlns:v="https://vecta.io/nano"><path d="M481.345 152.845L442.302 19.978a7.17 7.17 0 0 0-6.104-5.065c-2.881-.321-5.627 1.119-7.006 3.627L407.07 58.621c-95.252-78.141-233.536-78.177-328.786-.014L56.192 18.539c-1.376-2.508-4.16-3.948-7.036-3.627-2.85.304-5.244 2.316-6.073 5.065L4.039 152.845c-.735 2.514-.03 5.23 1.822 7.053 1.822 1.869 4.545 2.559 7.069 1.837l132.818-39.054c2.783-.816 4.795-3.231 5.081-6.092.357-2.863-1.117-5.645-3.643-7.02l-31.735-17.506c74.932-57.07 179.535-57.057 254.467 0l-31.752 17.506c-2.495 1.375-3.962 4.156-3.645 7.02s2.304 5.275 5.081 6.092l132.852 39.054c2.529.722 5.244.032 7.069-1.837 1.854-1.823 2.556-4.54 1.822-7.053zM176.067 346.448L31.353 228.72a11.92 11.92 0 0 0-12.66-1.516c-4.156 1.963-6.811 6.17-6.811 10.772v235.469c0 4.608 2.654 8.81 6.811 10.776 4.157 1.986 9.079 1.391 12.66-1.52L176.067 364.96c2.782-2.27 4.411-5.659 4.411-9.256s-1.63-6.989-4.411-9.256zm66.622-176.334c-9.047 0-16.37 7.32-16.37 16.369v259.881c0 9.049 7.323 16.373 16.37 16.373a16.37 16.37 0 0 0 16.375-16.373V186.483c0-9.048-7.324-16.369-16.375-16.369zm224.002 57.09c-4.157-1.985-9.079-1.395-12.66 1.516L309.317 346.448c-2.781 2.267-4.411 5.658-4.411 9.256s1.629 6.986 4.411 9.256L454.03 482.702c3.582 2.91 8.503 3.506 12.66 1.52 4.157-1.967 6.81-6.168 6.81-10.776V237.977c.001-4.603-2.653-8.81-6.809-10.773z"/></svg>